<mxfile host="Electron" modified="2025-09-19T14:00:12.038Z" agent="Mozilla/5.0 (X11; Linux x86_64) AppleWebKit/537.36 (KHTML, like Gecko) draw.io/22.1.2 Chrome/114.0.5735.289 Electron/25.9.4 Safari/537.36" etag="8rO7XXvA1hGoOq_YWn_8" version="22.1.2" type="device">
  <diagram name="Page-1" id="3JpRvVYHFlohhrh0m2d6">
    <mxGraphModel dx="814" dy="511" grid="1" gridSize="10" guides="1" tooltips="1" connect="1" arrows="1" fold="1" page="1" pageScale="1" pageWidth="827" pageHeight="1169" math="1" shadow="0">
      <root>
        <mxCell id="0" />
        <mxCell id="1" parent="0" />
        <mxCell id="6J_uQ7VuKVSw5PFFYwn5-4" style="edgeStyle=none;rounded=0;orthogonalLoop=1;jettySize=auto;html=1;exitX=0;exitY=1;exitDx=0;exitDy=0;entryX=0.5;entryY=0;entryDx=0;entryDy=0;" edge="1" parent="1" source="6J_uQ7VuKVSw5PFFYwn5-1" target="6J_uQ7VuKVSw5PFFYwn5-2">
          <mxGeometry relative="1" as="geometry" />
        </mxCell>
        <mxCell id="6J_uQ7VuKVSw5PFFYwn5-5" style="edgeStyle=none;rounded=0;orthogonalLoop=1;jettySize=auto;html=1;exitX=1;exitY=1;exitDx=0;exitDy=0;entryX=0.5;entryY=0;entryDx=0;entryDy=0;" edge="1" parent="1" source="6J_uQ7VuKVSw5PFFYwn5-1" target="6J_uQ7VuKVSw5PFFYwn5-3">
          <mxGeometry relative="1" as="geometry" />
        </mxCell>
        <mxCell id="6J_uQ7VuKVSw5PFFYwn5-1" value="&lt;font style=&quot;font-size: 14px;&quot;&gt;\(x\)&lt;/font&gt;" style="ellipse;whiteSpace=wrap;html=1;aspect=fixed;" vertex="1" parent="1">
          <mxGeometry x="320" y="150" width="50" height="50" as="geometry" />
        </mxCell>
        <mxCell id="6J_uQ7VuKVSw5PFFYwn5-2" value="&lt;font style=&quot;font-size: 14px;&quot;&gt;\(y_1\)&lt;/font&gt;" style="ellipse;whiteSpace=wrap;html=1;aspect=fixed;" vertex="1" parent="1">
          <mxGeometry x="270" y="240" width="50" height="50" as="geometry" />
        </mxCell>
        <mxCell id="6J_uQ7VuKVSw5PFFYwn5-3" value="&lt;font style=&quot;font-size: 14px;&quot;&gt;\(y_2\)&lt;/font&gt;" style="ellipse;whiteSpace=wrap;html=1;aspect=fixed;" vertex="1" parent="1">
          <mxGeometry x="370" y="240" width="50" height="50" as="geometry" />
        </mxCell>
        <mxCell id="6J_uQ7VuKVSw5PFFYwn5-7" style="edgeStyle=none;rounded=0;orthogonalLoop=1;jettySize=auto;html=1;exitX=1;exitY=0.5;exitDx=0;exitDy=0;" edge="1" parent="1" source="6J_uQ7VuKVSw5PFFYwn5-6" target="6J_uQ7VuKVSw5PFFYwn5-2">
          <mxGeometry relative="1" as="geometry" />
        </mxCell>
        <mxCell id="6J_uQ7VuKVSw5PFFYwn5-6" value="&lt;font style=&quot;font-size: 14px;&quot;&gt;\(e_1\)&lt;/font&gt;" style="ellipse;whiteSpace=wrap;html=1;aspect=fixed;" vertex="1" parent="1">
          <mxGeometry x="170" y="240" width="50" height="50" as="geometry" />
        </mxCell>
        <mxCell id="6J_uQ7VuKVSw5PFFYwn5-9" style="edgeStyle=none;rounded=0;orthogonalLoop=1;jettySize=auto;html=1;exitX=0;exitY=0.5;exitDx=0;exitDy=0;entryX=1;entryY=0.5;entryDx=0;entryDy=0;" edge="1" parent="1" source="6J_uQ7VuKVSw5PFFYwn5-8" target="6J_uQ7VuKVSw5PFFYwn5-3">
          <mxGeometry relative="1" as="geometry" />
        </mxCell>
        <mxCell id="6J_uQ7VuKVSw5PFFYwn5-8" value="&lt;font style=&quot;font-size: 14px;&quot;&gt;\(e_2\)&lt;/font&gt;" style="ellipse;whiteSpace=wrap;html=1;aspect=fixed;" vertex="1" parent="1">
          <mxGeometry x="470" y="240" width="50" height="50" as="geometry" />
        </mxCell>
        <mxCell id="6J_uQ7VuKVSw5PFFYwn5-11" value="Cause" style="text;html=1;strokeColor=none;fillColor=none;align=center;verticalAlign=middle;whiteSpace=wrap;rounded=0;" vertex="1" parent="1">
          <mxGeometry x="370" y="160" width="60" height="30" as="geometry" />
        </mxCell>
        <mxCell id="6J_uQ7VuKVSw5PFFYwn5-12" value="Expert 1 is in error" style="text;html=1;strokeColor=none;fillColor=none;align=center;verticalAlign=middle;whiteSpace=wrap;rounded=0;" vertex="1" parent="1">
          <mxGeometry x="165" y="300" width="60" height="30" as="geometry" />
        </mxCell>
        <mxCell id="6J_uQ7VuKVSw5PFFYwn5-13" value="Expert 2 is in error" style="text;html=1;strokeColor=none;fillColor=none;align=center;verticalAlign=middle;whiteSpace=wrap;rounded=0;" vertex="1" parent="1">
          <mxGeometry x="465" y="300" width="60" height="30" as="geometry" />
        </mxCell>
      </root>
    </mxGraphModel>
  </diagram>
</mxfile>
